<?xml version="1.0" encoding="UTF-8"?>
<svg id="Layer_1" data-name="Layer 1" xmlns="http://www.w3.org/2000/svg" viewBox="0 0 328 114">
  <defs>
    <style>
      .cls-1 {
        fill: #fff;
      }
    </style>
  </defs>
  <g>
    <path class="cls-1" d="M122.37,70.8c.21,0,.41.07.58.2s.27.33.27.6c0,.11-.02.22-.05.34l-5.86,16.97c-.05.16-.15.28-.29.37-.14.09-.28.13-.42.13-.18,0-.34-.04-.48-.12-.14-.08-.25-.21-.32-.38l-4.69-11.61.21.05-4.69,11.56c-.07.18-.18.3-.33.38-.15.08-.3.12-.46.12-.14,0-.28-.04-.42-.13-.14-.09-.24-.21-.29-.37l-5.86-16.97c-.04-.12-.05-.23-.05-.32,0-.27.1-.47.29-.61.19-.14.39-.21.58-.21.18,0,.34.04.48.13.14.09.24.21.29.37l5.33,15.54-.29.03,4.61-11.51c.05-.16.15-.29.28-.38.13-.1.29-.14.46-.12.18-.02.33.02.46.12.13.1.23.23.3.38l4.53,11.45-.27.11,5.3-15.62c.05-.16.15-.28.29-.37.14-.09.31-.13.5-.13Z"/>
    <path class="cls-1" d="M128.1,70.85h9.7c.23,0,.42.08.58.22.16.15.24.34.24.57s-.08.42-.24.56c-.16.14-.35.21-.58.21h-9.09l.26-.45v7.45l-.29-.34h7.93c.23,0,.42.08.58.24s.24.34.24.56c0,.23-.08.42-.24.56s-.35.21-.58.21h-7.87l.24-.26v7.63l-.13-.16h8.96c.23,0,.42.08.58.24s.24.34.24.56c0,.23-.08.42-.24.56s-.35.21-.58.21h-9.7c-.23,0-.42-.08-.57-.24-.15-.16-.23-.34-.23-.56v-16.97c0-.21.08-.4.23-.56.15-.16.34-.24.57-.24Z"/>
    <path class="cls-1" d="M151.48,89.67c-1.38,0-2.65-.24-3.8-.72-1.16-.48-2.17-1.14-3.04-2-.87-.86-1.54-1.87-2.01-3.04-.48-1.17-.72-2.43-.72-3.79s.24-2.62.72-3.79c.48-1.17,1.15-2.18,2.01-3.04.87-.86,1.88-1.52,3.04-2,1.16-.48,2.43-.72,3.8-.72.94,0,1.84.11,2.71.33.87.22,1.65.55,2.36.99.12.09.22.19.28.3.06.12.09.24.09.38,0,.23-.08.42-.25.57-.17.15-.34.23-.52.23-.09,0-.17-.01-.24-.04s-.15-.06-.24-.09c-.6-.32-1.26-.58-1.96-.78-.71-.2-1.45-.3-2.23-.3-1.52,0-2.87.35-4.05,1.05-1.19.7-2.11,1.64-2.78,2.84-.67,1.19-1.01,2.55-1.01,4.07s.34,2.88,1.01,4.08c.67,1.2,1.6,2.15,2.78,2.84,1.18.69,2.54,1.03,4.05,1.03.8,0,1.6-.12,2.4-.34.8-.23,1.5-.54,2.08-.93l-.13.56v-6.1l.4.37h-4.59c-.23,0-.42-.08-.58-.24-.16-.16-.24-.34-.24-.56,0-.25.08-.44.24-.58.16-.14.35-.21.58-.21h5.04c.25,0,.45.08.6.23s.23.34.23.57v6.39c0,.14-.04.27-.11.4-.07.12-.17.23-.29.32-.79.53-1.67.95-2.64,1.26-.96.31-1.96.46-2.98.46Z"/>
    <path class="cls-1" d="M172.61,87.84c.23,0,.42.08.58.23s.24.33.24.54c0,.23-.08.42-.24.57-.16.15-.35.23-.58.23h-9.44c-.23,0-.42-.08-.57-.24-.15-.16-.23-.34-.23-.56v-16.97c0-.21.08-.4.24-.56s.36-.24.61-.24c.21,0,.4.08.57.24s.25.34.25.56v16.65l-.5-.45h9.07Z"/>
    <path class="cls-1" d="M193.56,80.13c0,1.4-.22,2.67-.65,3.83-.43,1.16-1.05,2.17-1.84,3.02-.79.86-1.74,1.52-2.82,1.99s-2.28.7-3.57.7-2.5-.23-3.58-.7c-1.08-.47-2.02-1.13-2.81-1.99s-1.41-1.86-1.86-3.02c-.44-1.16-.66-2.43-.66-3.83s.22-2.67.66-3.83c.44-1.16,1.06-2.16,1.86-3.02s1.73-1.52,2.81-1.99c1.08-.47,2.27-.7,3.58-.7s2.48.23,3.57.7c1.09.47,2.03,1.13,2.82,1.99.8.86,1.41,1.86,1.84,3.02.43,1.16.65,2.44.65,3.83ZM191.86,80.13c0-1.57-.31-2.96-.93-4.15-.62-1.19-1.46-2.12-2.53-2.8s-2.31-1.01-3.72-1.01-2.64.34-3.73,1.01-1.93,1.6-2.54,2.8c-.61,1.19-.91,2.58-.91,4.15s.3,2.96.91,4.15c.61,1.19,1.46,2.12,2.54,2.8s2.33,1.01,3.73,1.01,2.66-.34,3.72-1.01,1.91-1.6,2.53-2.8c.62-1.19.93-2.58.93-4.15Z"/>
    <path class="cls-1" d="M205.94,70.85c1.49,0,2.65.4,3.49,1.21.84.8,1.26,1.92,1.26,3.35,0,.76-.16,1.47-.48,2.13-.32.66-.79,1.2-1.42,1.62-.63.42-1.39.65-2.29.7l-.13-.53c.65,0,1.29.09,1.92.28.63.19,1.19.48,1.7.89.5.41.91.92,1.21,1.52.3.61.45,1.35.45,2.21,0,.92-.15,1.71-.46,2.37s-.73,1.2-1.26,1.62-1.13.72-1.79.9-1.36.28-2.08.28h-7.13c-.23,0-.42-.08-.57-.24-.15-.16-.23-.34-.23-.56v-16.97c0-.21.08-.4.23-.56.15-.16.34-.24.57-.24h7.03ZM205.7,72.44h-6.2l.32-.5v7.5l-.29-.4h6.2c.92-.02,1.69-.32,2.32-.9.63-.58.94-1.45.94-2.6,0-.96-.29-1.71-.86-2.27s-1.38-.83-2.43-.83ZM205.91,80.66h-6.23l.13-.19v7.61l-.16-.24h6.28c1.15,0,2.1-.29,2.86-.86s1.14-1.49,1.14-2.74c0-.88-.19-1.59-.56-2.12s-.87-.91-1.49-1.13c-.62-.22-1.28-.33-1.99-.33Z"/>
    <path class="cls-1" d="M222.37,72.92l-6.44,15.99c-.07.18-.17.31-.29.4-.12.09-.27.13-.42.13-.27,0-.46-.07-.58-.2-.12-.13-.19-.3-.19-.49-.02-.09,0-.19.03-.32l7-17.13c.07-.19.17-.33.31-.41.13-.08.29-.12.46-.12.19,0,.36.05.49.15.13.1.23.22.3.38l6.97,17.05c.04.11.05.21.05.32,0,.25-.08.44-.24.57-.16.13-.34.2-.56.2-.18,0-.33-.05-.46-.15-.13-.1-.23-.23-.3-.38l-6.6-16.12.48.13ZM217.47,84.05l.66-1.56h8.22l.32,1.56h-9.2Z"/>
    <path class="cls-1" d="M244.33,87.84c.23,0,.42.08.58.23s.24.33.24.54c0,.23-.08.42-.24.57-.16.15-.35.23-.58.23h-9.44c-.23,0-.42-.08-.57-.24-.15-.16-.23-.34-.23-.56v-16.97c0-.21.08-.4.24-.56s.36-.24.61-.24c.21,0,.4.08.57.24s.25.34.25.56v16.65l-.5-.45h9.07Z"/>
    <path class="cls-1" d="M256.07,70.85c.99,0,1.87.22,2.62.68.76.45,1.36,1.07,1.8,1.87.44.79.66,1.71.66,2.76s-.22,1.92-.66,2.74c-.44.82-1.04,1.47-1.8,1.95-.76.48-1.63.72-2.62.72h-5.62l.13-.24v7.29c0,.21-.08.4-.24.56-.16.16-.34.24-.56.24-.25,0-.44-.08-.58-.24s-.21-.34-.21-.56v-16.97c0-.21.08-.4.23-.56.15-.16.34-.24.57-.24h6.28ZM256.07,80.02c.69,0,1.29-.17,1.8-.52s.92-.81,1.21-1.4c.29-.59.44-1.24.44-1.95,0-.74-.15-1.39-.44-1.95-.29-.56-.69-.99-1.21-1.31s-1.11-.48-1.8-.48h-5.62l.13-.21v7.98l-.16-.16h5.65Z"/>
    <path class="cls-1" d="M270.73,72.92l-6.44,15.99c-.07.18-.17.31-.29.4-.12.09-.27.13-.42.13-.27,0-.46-.07-.58-.2-.12-.13-.19-.3-.19-.49-.02-.09,0-.19.03-.32l7-17.13c.07-.19.17-.33.31-.41.13-.08.29-.12.46-.12.19,0,.36.05.49.15.13.1.23.22.3.38l6.97,17.05c.04.11.05.21.05.32,0,.25-.08.44-.24.57-.16.13-.34.2-.56.2-.18,0-.33-.05-.46-.15-.13-.1-.23-.23-.3-.38l-6.6-16.12.48.13ZM265.83,84.05l.66-1.56h8.22l.32,1.56h-9.2Z"/>
    <path class="cls-1" d="M280.33,72.36c-.21,0-.4-.07-.56-.21s-.24-.32-.24-.53c0-.23.08-.42.24-.56s.34-.21.56-.21h12.59c.23,0,.42.07.58.21s.24.33.24.56-.08.41-.24.54c-.16.13-.35.2-.58.2h-12.59ZM286.64,89.41c-.25,0-.45-.08-.61-.24s-.24-.34-.24-.56v-16.89h1.67v16.89c0,.21-.08.4-.24.56s-.35.24-.58.24Z"/>
    <path class="cls-1" d="M298.78,70.85c.21,0,.4.08.57.24s.25.35.25.58v16.91c-.02.23-.11.42-.28.58s-.36.24-.57.24c-.26,0-.47-.08-.61-.24s-.21-.35-.21-.58v-16.91c0-.23.08-.42.24-.58s.36-.24.61-.24ZM298.65,79.15h12.59l-.03,1.56h-12.67l.11-1.56ZM311.21,70.85c.25,0,.45.08.6.24.15.16.22.35.22.58v16.91c-.02.23-.1.42-.25.58-.15.16-.35.24-.6.24-.23,0-.42-.08-.58-.24-.16-.16-.24-.35-.24-.58v-16.91c0-.23.08-.42.25-.58s.37-.24.6-.24Z"/>
  </g>
  <g>
    <path class="cls-1" d="M135.15,54.34l-1.12,3.28c-8.28-.76-13.68-3.72-18.68-7.76-1.24.72-2.56,1.36-3.96,1.92v2.6l6.92-1.12v3.04l-12.6,1.8-.92-2.68,2.04-.32v-1.88c-2.16.6-4.64,1.12-7.48,1.6l-.96-3.56c5.04-.64,8.52-1.36,11.32-2.24h-4.48c-1.56,0-2.6-1.04-2.6-2.6v-2.64c0-1.56,1.04-2.6,2.6-2.6h23.16c1.56,0,2.6,1.04,2.6,2.6v2.64c0,1.56-1.04,2.6-2.6,2.6h-8.88c1.08.72,2.24,1.36,3.48,2,2.96-.68,7.64-2,10.12-3.16v3.36c-1.32.52-3.44,1.12-5.6,1.68,2.44.84,5.04,1.36,7.64,1.44ZM131.15,33.39c0,1.88-.76,2.64-2.4,2.64h-24c-1.6,0-2.4-.72-2.4-2.64v-2.52h-2.88v-4.6c0-1.64,1.12-2.76,2.76-2.76h12.12v-1.84h4.64v1.84h12.52c1.64,0,2.76,1.12,2.76,2.76v4.6h-3.12v2.52ZM133.43,40.23h-33.47l-.28-3.24h33.75v3.24ZM129.95,27.51c0-.36-.24-.6-.6-.6h-24.96c-.36,0-.6.24-.6.6v.72c.28-.08.6-.12.96-.12h24c.48,0,.88.08,1.2.2v-.8ZM110.67,31.15h-3.52c-.32,0-.56.24-.56.6v.68c0,.32.24.56.56.56h3.52v-1.84ZM107.59,45.91h18.44c.24,0,.4-.16.4-.4v-.8c0-.24-.16-.4-.4-.4h-18.44c-.24,0-.4.16-.4.4v.8c0,.24.16.4.4.4ZM118.79,31.15h-4.04v1.84h4.04v-1.84ZM126.39,32.99c.32,0,.52-.24.52-.56v-.68c0-.36-.2-.6-.52-.6h-3.52v1.84h3.52Z"/>
    <path class="cls-1" d="M170.07,49.3v4.16l-12.6,1.48-.44-4.16,4.6-.52v-10.2h-3.16l-.4-4.16h3.56v-8.08h-3.32l-.4-4.16h11.96v4.16h-3.6v8.08h3.2v4.16h-3.2v9.68l3.8-.44ZM193.99,49.54l-1.68,4.76c-4.16-2.64-6.76-5.52-8.68-9.12v7.88c0,2.52-1.64,4.12-4.36,4.2-1.6.04-3.28-.12-4.92-.48l-1.12-4.24c1.2.36,2.44.52,4,.52,1,0,1.76-.68,1.76-1.6v-5.36l-7.96,4.48-1.2-4.08,9.16-5.04v-9.64h-8.08l-.4-4.16h8.48v-6h4.64v6h9.52v4.16h-9.52v3.6c.2,1.24.48,2.4.84,3.44,1.88-1.68,2.8-3.24,3.4-5.6h4.48c-1,4-2.88,7.04-6.16,9.24,1.88,2.92,4.52,5,7.8,7.04ZM175.23,33.51l2.08,7.28h-4.32l-2.08-7.28h4.32ZM190.03,22.15l1.48,4.64h-4.32l-1.48-4.64h4.32Z"/>
    <path class="cls-1" d="M230.55,47.39c2.16,0,3,1.04,3.2,3.2.12,1.24.12,2.56,0,3.68-.2,1.88-1.4,2.88-3.24,3.08-1.52.16-3.24,0-4.64-.32l-.92-3.2c1.32.28,2.84.4,4.04.32.56-.04.92-.36,1-.92.12-.68.08-1.44,0-2.04-.04-.4-.2-.6-.6-.6h-4c-.96,3.44-3.44,5.68-8.48,7.4l-1-3.72c2.72-1.12,4.24-2.24,5.08-3.68h-3.84l-.28-3.2h4.96c.04-.28.04-.6.04-.92v-.24h4v1.16h4.68ZM244.47,42.19h7.8v3.44h-35.59l-.32-3.44h7.8l-.92-1.68h-.88c-2.04,0-2.8-1.08-2.8-2.8v-2.48c0-1.88.88-2.8,2.8-2.8h23.76c1.92,0,2.8.92,2.8,2.8v2.48c0,2.04-.96,2.8-2.8,2.8h-.72l-.92,1.68ZM250.71,27.75v3.4h-32.23l-.36-3.4h13.8v-1.4h-14.8l-.32-3.44h15.12v-1.24h4.8v1.24h15.32v3.44h-15.32v1.4h14ZM224.35,36.27v.4c0,.36.2.56.6.56h18.56c.4,0,.6-.2.6-.56v-.4c0-.36-.2-.56-.6-.56h-18.56c-.4,0-.6.2-.6.56ZM228.19,40.51l.92,1.68h10.4l.92-1.68h-12.24ZM251.11,49.83v4.32c0,1.84-1.04,2.92-2.92,2.92h-10.28c-1.88,0-2.92-1.08-2.92-2.92v-4.32c0-1.88,1.04-2.92,2.92-2.92h10.28c1.88,0,2.92,1.04,2.92,2.92ZM239.31,50.67v2.6c0,.36.24.6.6.6h6.28c.36,0,.6-.24.6-.6v-2.6c0-.32-.24-.56-.6-.56h-6.28c-.36,0-.6.24-.6.56Z"/>
    <path class="cls-1" d="M291.79,52.78h19.84l-1.04,4.2h-18.88c-5.16,0-8.36-1.92-9.8-5.08-.68,1.92-2.8,4.2-6,5.96l-1.36-4.04c2.8-1.68,4.68-4.76,4.72-7.68v-9.76c0-.4-.28-.68-.68-.68h-2.96l-.4-4h5.44c2.08,0,3.16,1.08,3.16,3.12v11.12c.44,5.36,3.6,6.84,7.96,6.84ZM276.39,25.99v-4.24l8.44,2.72v4.24l-8.44-2.72ZM306.47,34.71h-5.84v2.44h9.52v3.92h-9.52v6.64c0,2.44-1.4,4.04-4.04,4.28-1.32.12-3.2,0-4.52-.28l-1.08-4c1.08.28,2.56.36,3.64.24.92-.12,1.28-.64,1.28-1.52v-5.36h-9.32l-.4-3.92h9.72v-2.44h-6l-.2-2.08c-1.16.56-2.4,1.08-3.76,1.6l-1.32-4.76c5.32-1.76,8.88-4.12,11.2-7.8h4.92c2.6,4.28,5.92,5.96,11.16,7.96l-1.36,4.76c-1.48-.64-2.84-1.28-4.08-1.96v2.28ZM285.39,49.95l2.72-7.48h4.44l-2.68,7.48h-4.48ZM298.23,25.91c-1.24,1.76-2.92,3.4-5.2,4.88h10.64c-2.32-1.48-4.16-3.08-5.44-4.88ZM303.51,42.47h4.52l2.88,7.48h-4.56l-2.84-7.48Z"/>
  </g>
  <path class="cls-1" d="M15.85,51.35c.11-.51.24-1.01.37-1.5.05-.19.21-.32.41-.32h68.56c.2,0,.36.13.41.32.13.47.24.94.34,1.4.03.13,0,.25-.08.36-.09.11-.2.16-.33.16h-24.15s-.08,0-.08,0l-2.64,2.64h-21.81l-2.56-2.56-18.02.03c-.14,0-.25-.05-.34-.16-.09-.11-.11-.23-.08-.36ZM74.31,31.92c-.08-.07-.17-.1-.28-.1H27.79c-.11,0-.2.03-.28.1-.49.42-.98.87-1.46,1.32-.13.12-.17.3-.1.47.07.17.22.27.4.27h10.84l2.71,2.71h19.72l2.61-2.61,13.32-.02c.18,0,.33-.1.4-.27.07-.17.03-.34-.1-.47-.5-.49-1.02-.96-1.54-1.4ZM20.91,39.82c.08.14.22.23.38.23l9.14-.02,2.56,2.56h31.55l2.64-2.64,13.28-.02c.17,0,.3-.08.38-.23.08-.14.07-.3-.02-.44-.31-.47-.64-.93-.96-1.37-.08-.11-.2-.17-.35-.17H22.31c-.14,0-.26.06-.35.17-.36.49-.71.99-1.04,1.49-.09.14-.1.3-.02.44ZM73.62,61.48c-1.32,12.79-11.55,23.55-25.14,25.32-4.42.58-8.73.13-12.67-1.14l-.1-.03c-.42-.14-.83-.3-1.24-.45-2.34-.98-4.19-2.39-5.24-3.3-.28-.26-.57-.51-.84-.77-.07-.07-.11-.12-.11-.12h0s-.02-.01-.04-.02c5.04,3.23,11.26,4.78,17.76,3.93,12.54-1.63,21.97-11.6,23.15-23.41h-9.65c-.72,9.86-8.48,18.26-18.89,19.62-3.2.41-6.31.12-9.18-.76-4.78-1.47-7.27-4.56-8.46-6.62-1.58-3.12-2.52-6.52-2.72-10.21-.11-1.97,0-3.9.29-5.78h16.11s2.55,2.55,2.55,2.55h10.79l2.64-2.64h.08s33.64.01,33.64.01c.12,0,.23-.04.31-.13.09-.09.12-.19.12-.32-.03-.46-.06-.92-.1-1.36-.02-.22-.2-.39-.43-.39H15.58c-.22,0-.41.17-.43.39-.04.48-.08.96-.1,1.43,0,.12.03.23.12.32.02.02.03.02.05.04.06,1.93.26,3.86.65,5.77.75,3.67,2.07,7.12,3.93,10.37,1.82,3.17,4.02,5.95,6.58,8.38,6,5.93,14.2,9.63,23.14,9.99.09,0,.17,0,.26,0,.45.02.9.02,1.35.02.29,0,.57,0,.86-.01.22,0,.43-.01.65-.02,2.15-.09,4.29-.36,6.44-.82,3.52-.76,6.84-2.04,9.96-3.83,4.42-2.54,8.13-5.89,11.15-10,2.98-4.05,5.05-8.53,6.13-13.45.19-.84.33-1.69.45-2.54h-13.15ZM71.88,30c-2.26-1.63-4.72-2.99-7.29-4.06-.06-.02-.1-.03-.16-.03h-27.03c-.06,0-.11,0-.16.03-1.04.43-2.08.92-3.09,1.45-.18.09-.26.29-.22.48.05.2.21.33.42.33h0l14.12-.04,2.62,2.62h20.55c.19,0,.35-.12.41-.3.06-.18,0-.37-.16-.48ZM17.78,45.77c.08.12.21.19.35.19h0l14.14-.03,2.57,2.57h33.74l.12-.12,2.52-2.52,12.39-.03c.15,0,.27-.07.36-.19.08-.12.1-.26.04-.4-.19-.46-.4-.92-.6-1.35-.07-.16-.22-.25-.39-.25H18.79c-.17,0-.31.09-.39.25-.23.48-.45.99-.66,1.49-.06.14-.04.28.04.4ZM40.21,24.91c21.15,0,21.55,0,21.39-.04-3.45-1.08-7.06-1.62-10.7-1.62-6.02,0-11.02,1.67-10.69,1.67Z"/>
</svg>