<svg width="15" height="20" viewBox="0 0 15 20" fill="none" xmlns="http://www.w3.org/2000/svg">
<path d="M8.55556 5.3125V0H0.916667C0.408681 0 0 0.417969 0 0.9375V19.0625C0 19.582 0.408681 20 0.916667 20H13.75C14.258 20 14.6667 19.582 14.6667 19.0625V6.25H9.47222C8.96806 6.25 8.55556 5.82812 8.55556 5.3125ZM11.4755 13.5687L7.79281 17.307C7.53882 17.5652 7.12861 17.5652 6.87462 17.307L3.19191 13.5687C2.80424 13.1754 3.07618 12.5 3.6216 12.5H6.11111V9.375C6.11111 9.02969 6.38458 8.75 6.72222 8.75H7.94444C8.28208 8.75 8.55556 9.02969 8.55556 9.375V12.5H11.0451C11.5905 12.5 11.8624 13.1754 11.4755 13.5687ZM14.3993 4.10156L10.6601 0.273438C10.4882 0.0976562 10.2552 0 10.0108 0H9.77778V5H14.6667V4.76172C14.6667 4.51562 14.5712 4.27734 14.3993 4.10156Z" fill="#A31C1C"/>
</svg>
