<svg viewBox="0 0 132 25" xmlns="http://www.w3.org/2000/svg" xmlns:xlink="http://www.w3.org/1999/xlink"><defs><path id="a" d="M0 0h25v25H0z"/></defs><g fill="none" fill-rule="evenodd"><path d="M35.892 12.09c1.644 0 2.819-.847 2.819-2.256v-.032c0-1.346-1.034-2.16-2.803-2.16h-3.383v4.447h3.367zm-4.604-4.965c0-.345.282-.627.61-.627H36c1.348 0 2.428.407 3.117 1.096.532.533.846 1.3.846 2.162v.031c0 1.801-1.222 2.85-2.93 3.18l2.726 3.507c.125.141.204.282.204.454 0 .33-.314.611-.627.611-.25 0-.438-.14-.58-.329l-3.084-4.009h-3.148v3.711a.629.629 0 0 1-.627.627.625.625 0 0 1-.61-.627V7.125zm20.735 4.886v-.03c0-2.49-1.818-4.527-4.324-4.527-2.505 0-4.29 2.004-4.29 4.494v.032c0 2.49 1.816 4.525 4.322 4.525 2.505 0 4.291-2.004 4.291-4.494m-9.896 0v-.03c0-3.024 2.27-5.67 5.605-5.67 3.335 0 5.575 2.615 5.575 5.637v.032c0 3.022-2.27 5.67-5.606 5.67s-5.575-2.617-5.575-5.639m18.699 4.339c1.66 0 2.693-.737 2.693-1.959v-.03c0-1.19-1.002-1.88-2.912-1.88h-3.46v3.868h3.68zm-.438-4.965c1.487 0 2.521-.674 2.521-1.958v-.03c0-1.082-.862-1.787-2.428-1.787h-3.335v3.775h3.242zm-4.464-4.26c0-.345.282-.627.611-.627h4.056c1.253 0 2.24.361 2.866.972.454.47.704 1.048.704 1.754v.031c0 1.425-.877 2.161-1.738 2.537 1.3.391 2.35 1.143 2.35 2.646v.032c0 1.88-1.583 2.991-3.979 2.991h-4.259a.626.626 0 0 1-.61-.627V7.125zm11.308 9.71v-9.71c0-.344.282-.626.61-.626h6.813c.313 0 .564.25.564.564a.562.562 0 0 1-.564.564h-6.186v3.743h5.48a.57.57 0 0 1 .565.563.56.56 0 0 1-.564.564h-5.481v3.837h6.264c.313 0 .564.25.564.563a.561.561 0 0 1-.564.564h-6.89a.625.625 0 0 1-.611-.626m15.097-4.745c1.645 0 2.819-.847 2.819-2.256v-.032c0-1.346-1.034-2.16-2.803-2.16H78.96v4.447h3.367zm-4.604-4.965c0-.345.282-.627.61-.627h4.104c1.347 0 2.427.407 3.116 1.096.532.533.846 1.3.846 2.162v.031c0 1.801-1.222 2.85-2.928 3.18l2.724 3.507c.125.141.204.282.204.454 0 .33-.314.611-.627.611-.25 0-.438-.14-.58-.329l-3.084-4.009H78.96v3.711a.628.628 0 0 1-.626.627.626.626 0 0 1-.611-.627V7.125zm14.111.517h-3.18a.576.576 0 0 1-.58-.564.59.59 0 0 1 .58-.58h7.612c.313 0 .579.267.579.58a.575.575 0 0 1-.58.564h-3.178v9.271a.628.628 0 0 1-.627.626.628.628 0 0 1-.626-.626v-9.27zm6.624 8.504a.558.558 0 0 1-.235-.47.6.6 0 0 1 .595-.611c.157 0 .298.063.376.14 1.034.878 2.067 1.3 3.461 1.3 1.472 0 2.443-.782 2.443-1.862v-.032c0-1.018-.548-1.597-2.85-2.083-2.52-.548-3.68-1.362-3.68-3.163v-.031c0-1.723 1.52-2.992 3.602-2.992 1.44 0 2.49.36 3.492 1.08a.637.637 0 0 1 .266.502.595.595 0 0 1-.595.595.58.58 0 0 1-.36-.11c-.924-.673-1.817-.954-2.835-.954-1.425 0-2.333.782-2.333 1.769v.03c0 1.035.564 1.614 2.975 2.13 2.444.533 3.571 1.426 3.571 3.102v.03c0 1.88-1.566 3.102-3.743 3.102-1.597 0-2.928-.501-4.15-1.472m19.827-4.135v-.03c0-2.49-1.816-4.527-4.322-4.527-2.506 0-4.291 2.004-4.291 4.494v.032c0 2.49 1.817 4.525 4.322 4.525 2.506 0 4.29-2.004 4.29-4.494m-9.896 0v-.03c0-3.024 2.27-5.67 5.606-5.67s5.575 2.615 5.575 5.637v.032c0 3.022-2.27 5.67-5.606 5.67s-5.575-2.617-5.575-5.639zm13.797-4.948c0-.33.282-.611.61-.611h.173c.282 0 .454.14.626.36l6.656 8.488V7.032a.61.61 0 0 1 .611-.611c.328 0 .595.282.595.61v9.898c0 .329-.235.579-.564.579h-.062c-.267 0-.455-.156-.643-.376l-6.796-8.691v8.488a.612.612 0 0 1-.61.61.608.608 0 0 1-.596-.61V7.063z" fill="#000"/><mask id="b" fill="#fff"><use xlink:href="#a"/></mask><path d="m21.907 12.485 2.17.003a.901.901 0 0 0 .904-.902L24.964.9a.9.9 0 0 0-.903-.9L.9.036A.901.901 0 0 0 0 .94l.037 23.162c0 .497.405.9.902.9l10.68-.018a.901.901 0 0 0 .9-.902l-.003-2.154a.45.45 0 0 1 .768-.32l3.116 3.105a.896.896 0 0 0 .637.262l7.063-.01a.901.901 0 0 0 .9-.903l-.011-7.024a.901.901 0 0 0-.263-.636l-3.14-3.147a.451.451 0 0 1 .32-.77" fill="#E21B48" mask="url(#b)"/></g></svg>