<svg width="28" height="28" viewBox="0 0 28 28" fill="none" xmlns="http://www.w3.org/2000/svg">
<path d="M19.0866 16.3335C19.1799 15.5635 19.2499 14.7935 19.2499 14.0002C19.2499 13.2068 19.1799 12.4368 19.0866 11.6668H23.0299C23.2166 12.4135 23.3333 13.1952 23.3333 14.0002C23.3333 14.8052 23.2166 15.5868 23.0299 16.3335H19.0866ZM17.0216 22.8202C17.7216 21.5252 18.2583 20.1252 18.6316 18.6668H22.0733C20.943 20.6132 19.1497 22.0875 17.0216 22.8202V22.8202ZM16.7299 16.3335H11.2699C11.1533 15.5635 11.0833 14.7935 11.0833 14.0002C11.0833 13.2068 11.1533 12.4252 11.2699 11.6668H16.7299C16.8349 12.4252 16.9166 13.2068 16.9166 14.0002C16.9166 14.7935 16.8349 15.5635 16.7299 16.3335ZM13.9999 23.2868C13.0316 21.8868 12.2499 20.3352 11.7716 18.6668H16.2283C15.7499 20.3352 14.9683 21.8868 13.9999 23.2868ZM9.33325 9.3335H5.92659C7.04525 7.38191 8.83718 5.90523 10.9666 5.18016C10.2666 6.47516 9.74159 7.87516 9.33325 9.3335ZM5.92659 18.6668H9.33325C9.74159 20.1252 10.2666 21.5252 10.9666 22.8202C8.84165 22.0871 7.05224 20.6125 5.92659 18.6668V18.6668ZM4.96992 16.3335C4.78325 15.5868 4.66659 14.8052 4.66659 14.0002C4.66659 13.1952 4.78325 12.4135 4.96992 11.6668H8.91325C8.81992 12.4368 8.74992 13.2068 8.74992 14.0002C8.74992 14.7935 8.81992 15.5635 8.91325 16.3335H4.96992ZM13.9999 4.70183C14.9683 6.10183 15.7499 7.66516 16.2283 9.3335H11.7716C12.2499 7.66516 13.0316 6.10183 13.9999 4.70183V4.70183ZM22.0733 9.3335H18.6316C18.2664 7.88853 17.7258 6.49371 17.0216 5.18016C19.1683 5.91516 20.9533 7.39683 22.0733 9.3335ZM13.9999 2.3335C7.54825 2.3335 2.33325 7.5835 2.33325 14.0002C2.33325 17.0944 3.56242 20.0618 5.75034 22.2497C6.83369 23.3331 8.11981 24.1925 9.53528 24.7788C10.9507 25.3651 12.4678 25.6668 13.9999 25.6668C17.0941 25.6668 20.0616 24.4377 22.2495 22.2497C24.4374 20.0618 25.6666 17.0944 25.6666 14.0002C25.6666 12.4681 25.3648 10.951 24.7785 9.53552C24.1922 8.12006 23.3328 6.83393 22.2495 5.75058C21.1661 4.66723 19.88 3.80787 18.4646 3.22157C17.0491 2.63526 15.532 2.3335 13.9999 2.3335V2.3335Z" fill="white"/>
</svg>
