<svg width="28" height="28" viewBox="0 0 28 28" fill="none" xmlns="http://www.w3.org/2000/svg">
<path d="M12.3129 7.27987L8.36611 2.72404C7.91111 2.19904 7.07694 2.20137 6.54845 2.73104L3.30278 5.98254C2.33678 6.9497 2.06028 8.38587 2.61911 9.53737C5.95767 16.4498 11.5325 22.0325 18.4403 25.3807C19.5906 25.9395 21.0256 25.663 21.9916 24.6959L25.2676 21.414C25.7984 20.8832 25.7996 20.0444 25.2699 19.5894L20.6966 15.6635C20.2183 15.2529 19.4751 15.3065 18.9956 15.7872L17.4043 17.3809C17.3228 17.4663 17.2156 17.5225 17.099 17.5411C16.9825 17.5596 16.8631 17.5394 16.7591 17.4835C14.158 15.9857 12.0003 13.8251 10.5058 11.222C10.4498 11.1179 10.4295 10.9983 10.4481 10.8816C10.4666 10.7648 10.523 10.6574 10.6084 10.5757L12.1951 8.98787C12.6758 8.50487 12.7283 7.7582 12.3129 7.2787V7.27987Z" stroke="white" stroke-width="2" stroke-linecap="round" stroke-linejoin="round"/>
</svg>
