<svg width="28" height="28" viewBox="0 0 28 28" fill="none" xmlns="http://www.w3.org/2000/svg">
<path d="M13.8865 6.97754C13.1942 6.97754 12.5176 7.18281 11.942 7.5674C11.3664 7.95198 10.9178 8.49861 10.6529 9.13815C10.388 9.77769 10.3187 10.4814 10.4537 11.1604C10.5888 11.8393 10.9221 12.4629 11.4116 12.9524C11.9011 13.4419 12.5247 13.7752 13.2037 13.9103C13.8826 14.0453 14.5863 13.976 15.2259 13.7111C15.8654 13.4462 16.412 12.9976 16.7966 12.422C17.1812 11.8465 17.3865 11.1698 17.3865 10.4775C17.3854 9.54961 17.0163 8.65998 16.3602 8.00383C15.704 7.34768 14.8144 6.9786 13.8865 6.97754V6.97754ZM13.8865 12.2275C13.5404 12.2275 13.202 12.1249 12.9142 11.9326C12.6264 11.7403 12.4021 11.467 12.2697 11.1472C12.1372 10.8275 12.1026 10.4756 12.1701 10.1361C12.2376 9.79666 12.4043 9.48484 12.649 9.2401C12.8938 8.99536 13.2056 8.82869 13.5451 8.76116C13.8845 8.69364 14.2364 8.7283 14.5562 8.86075C14.8759 8.9932 15.1493 9.21751 15.3415 9.50529C15.5338 9.79308 15.6365 10.1314 15.6365 10.4775C15.6359 10.9415 15.4514 11.3863 15.1233 11.7144C14.7952 12.0425 14.3504 12.227 13.8865 12.2275V12.2275Z" fill="white"/>
<path d="M20.6121 3.74688C18.9492 2.08441 16.7294 1.09683 14.3812 0.97475C12.0329 0.852673 9.72273 1.60475 7.89641 3.08583C6.07008 4.56692 4.85712 6.67201 4.49161 8.99482C4.12611 11.3176 4.63398 13.6935 5.9172 15.6639L12.5293 25.8146C12.6764 26.0405 12.8776 26.2261 13.1146 26.3545C13.3516 26.483 13.6169 26.5502 13.8865 26.5502C14.1561 26.5502 14.4214 26.483 14.6584 26.3545C14.8954 26.2261 15.0966 26.0405 15.2437 25.8146L21.856 15.6639C23.0467 13.8361 23.5729 11.6545 23.3464 9.48488C23.12 7.31524 22.1546 5.28939 20.6121 3.74688V3.74688ZM20.3898 14.7087L13.8865 24.6919L7.38326 14.7087C5.39263 11.6528 5.81958 7.56325 8.39842 4.9843C9.11912 4.26357 9.97473 3.69187 10.9164 3.30181C11.858 2.91176 12.8673 2.711 13.8865 2.711C14.9058 2.711 15.915 2.91176 16.8567 3.30181C17.7983 3.69187 18.6539 4.26357 19.3746 4.9843C21.9535 7.56325 22.3804 11.6528 20.3898 14.7087Z" fill="white"/>
</svg>
