<svg width="18" height="19" viewBox="0 0 18 19" fill="none" xmlns="http://www.w3.org/2000/svg">
<path fill-rule="evenodd" clip-rule="evenodd" d="M8.52786 0C3.82149 0 0 4.0353 0 9.00501C0 13.9747 3.82149 18.01 8.52786 18.01C13.2342 18.01 17.0557 13.9747 17.0557 9.00501C17.0557 4.0353 13.2342 0 8.52786 0ZM3.55461 9.52624L6.56445 12.7045C6.75306 12.9036 7.0099 13.0159 7.27677 13.0149C7.54365 13.0138 7.79948 12.9005 7.9881 12.6992L13.5061 6.79931C13.8944 6.38296 13.8904 5.71235 13.4971 5.3013C13.1028 4.89025 12.4667 4.89449 12.0775 5.31083L7.26975 10.4522L4.97325 8.02823C4.58197 7.614 3.94589 7.614 3.55461 8.02823C3.16334 8.4414 3.16334 9.11306 3.55461 9.52624V9.52624Z" fill="#A31C1C"/>
</svg>
