<svg width="25" height="18" viewBox="0 0 25 18" fill="none" xmlns="http://www.w3.org/2000/svg">
<path d="M22.75 0H1.75C1.28587 0 0.840752 0.184374 0.512563 0.512563C0.184374 0.840752 0 1.28587 0 1.75V15.75C0 16.2141 0.184374 16.6592 0.512563 16.9874C0.840752 17.3156 1.28587 17.5 1.75 17.5H22.75C23.2141 17.5 23.6592 17.3156 23.9874 16.9874C24.3156 16.6592 24.5 16.2141 24.5 15.75V1.75C24.5 1.28587 24.3156 0.840752 23.9874 0.512563C23.6592 0.184374 23.2141 0 22.75 0ZM20.825 1.75L12.25 7.6825L3.675 1.75H20.825ZM1.75 15.75V2.54625L11.7513 9.4675C11.8977 9.56911 12.0717 9.62356 12.25 9.62356C12.4283 9.62356 12.6023 9.56911 12.7487 9.4675L22.75 2.54625V15.75H1.75Z" fill="white"/>
</svg>
