<svg width="30" height="30" viewBox="0 0 30 30" fill="none" xmlns="http://www.w3.org/2000/svg">
<path d="M24.3749 27.1875H24.2155C5.79365 26.1281 3.17802 10.5844 2.8124 5.84063C2.78294 5.47179 2.82654 5.10077 2.94072 4.74882C3.05489 4.39687 3.23739 4.07091 3.47776 3.78961C3.71812 3.50831 4.01163 3.27721 4.34147 3.10954C4.6713 2.94187 5.03098 2.84093 5.3999 2.8125H10.5655C10.941 2.81214 11.308 2.92454 11.6189 3.13515C11.9298 3.34576 12.1703 3.64488 12.3093 3.99375L13.7343 7.5C13.8715 7.84083 13.9055 8.21445 13.8322 8.57446C13.7589 8.93447 13.5814 9.26501 13.3218 9.525L11.3249 11.5406C11.6368 13.3132 12.4857 14.9472 13.7567 16.2215C15.0277 17.4959 16.6594 18.349 18.4311 18.6656L20.4655 16.65C20.7294 16.3933 21.0631 16.2199 21.4248 16.1516C21.7866 16.0832 22.1605 16.1229 22.4999 16.2656L26.0343 17.6813C26.3779 17.8246 26.671 18.067 26.8764 18.3775C27.0818 18.688 27.19 19.0527 27.1874 19.425V24.375C27.1874 25.1209 26.8911 25.8363 26.3636 26.3637C25.8362 26.8912 25.1208 27.1875 24.3749 27.1875ZM5.6249 4.6875C5.37626 4.6875 5.1378 4.78627 4.96198 4.96209C4.78617 5.1379 4.6874 5.37636 4.6874 5.625V5.7C5.11865 11.25 7.88427 24.375 24.3186 25.3125C24.4418 25.3201 24.5653 25.3033 24.6819 25.2631C24.7986 25.2229 24.9062 25.1601 24.9985 25.0782C25.0908 24.9963 25.1661 24.897 25.2199 24.786C25.2738 24.675 25.3052 24.5544 25.3124 24.4312V19.425L21.778 18.0094L19.0874 20.6812L18.6374 20.625C10.4811 19.6031 9.3749 11.4469 9.3749 11.3625L9.31865 10.9125L11.9811 8.22188L10.5749 4.6875H5.6249Z" fill="#F8F8F8"/>
</svg>
