<svg width="30" height="30" viewBox="0 0 30 30" fill="none" xmlns="http://www.w3.org/2000/svg">
<path d="M11.2087 13.3887C10.9974 13.3902 10.7879 13.3497 10.5923 13.2695C10.3967 13.1893 10.2191 13.0711 10.0696 12.9216C9.92017 12.7722 9.80191 12.5945 9.72172 12.399C9.64153 12.2034 9.601 11.9939 9.6025 11.7825C9.6025 10.885 10.3112 10.175 11.2087 10.175C12.105 10.175 12.815 10.885 12.815 11.7825C12.815 12.6788 12.105 13.3887 11.2087 13.3887ZM19.5412 13.3887C19.3299 13.3902 19.1204 13.3497 18.9248 13.2695C18.7292 13.1893 18.5516 13.0711 18.4021 12.9216C18.2527 12.7722 18.1344 12.5945 18.0542 12.399C17.974 12.2034 17.9335 11.9939 17.935 11.7825C17.935 10.885 18.645 10.175 19.5412 10.175C20.4387 10.175 21.1475 10.885 21.1475 11.7825C21.1475 12.6788 20.4387 13.3887 19.5412 13.3887V13.3887ZM8.90375 23.0187L9.7975 22.4737C10.8095 21.8567 12.0079 21.6192 13.1787 21.8038C13.4437 21.845 13.6613 21.8775 13.8288 21.8988C14.3363 21.9663 14.8537 22 15.375 22C20.9 22 25.25 18.2225 25.25 13.75C25.25 9.2775 20.9 5.5 15.375 5.5C9.85 5.5 5.5 9.2775 5.5 13.75C5.5 15.4575 6.125 17.0913 7.29 18.4763C7.35 18.5475 7.44 18.6475 7.5575 18.77C8.04884 19.2817 8.42567 19.8921 8.66296 20.5606C8.90024 21.2292 8.99255 21.9405 8.93375 22.6475L8.9025 23.0187H8.90375ZM8.11625 26.4275C7.91964 26.5505 7.69269 26.6164 7.46078 26.6178C7.22887 26.6192 7.00114 26.556 6.80307 26.4354C6.60499 26.3148 6.44439 26.1414 6.33921 25.9347C6.23403 25.728 6.18843 25.4961 6.2075 25.265L6.4425 22.44C6.47198 22.0866 6.42593 21.7309 6.30739 21.3966C6.18886 21.0624 6.00056 20.7572 5.755 20.5013C5.62389 20.3666 5.49716 20.2278 5.375 20.085C3.8825 18.3088 3 16.1188 3 13.75C3 7.8125 8.54 3 15.375 3C22.21 3 27.75 7.8125 27.75 13.75C27.75 19.6875 22.21 24.5 15.375 24.5C14.7375 24.5 14.1125 24.4587 13.5013 24.3775C13.2638 24.3454 13.0266 24.3104 12.79 24.2725C12.2044 24.1801 11.6049 24.2988 11.0988 24.6075L8.115 26.4275H8.11625Z" fill="#F8F8F8"/>
</svg>
