<svg width="30" height="30" viewBox="0 0 30 30" fill="none" xmlns="http://www.w3.org/2000/svg">
<path d="M23.9313 11.2413L11.6825 18.2513L11.595 18.3088C11.4787 18.3669 11.35 18.396 11.22 18.3938C11.0715 18.3946 10.9256 18.355 10.7979 18.2792C10.6702 18.2035 10.5655 18.0944 10.495 17.9638L10.4375 17.8488L8.15 12.9113C8.12 12.8538 8.12 12.7963 8.12 12.7388C8.12 12.5088 8.29375 12.3375 8.525 12.3375C8.6125 12.3375 8.7 12.3663 8.78625 12.4238L11.48 14.3175C11.6825 14.4325 11.915 14.5187 12.175 14.5187C12.3242 14.518 12.4718 14.4887 12.61 14.4325L22.9538 9.8725C21.1675 7.84125 18.2925 6.5 15 6.5C9.475 6.5 5.125 10.2775 5.125 14.75C5.125 16.4575 5.75 18.0913 6.915 19.4763C6.975 19.5475 7.065 19.6475 7.1825 19.77C7.67384 20.2817 8.05067 20.8921 8.28796 21.5606C8.52524 22.2292 8.61755 22.9405 8.55875 23.6475L8.5275 24.0187L9.4225 23.4737C10.4345 22.8567 11.6329 22.6192 12.8037 22.8038C13.0687 22.845 13.2863 22.8775 13.4538 22.8988C13.9613 22.9663 14.4787 23 15 23C20.525 23 24.875 19.2225 24.875 14.75C24.875 13.505 24.5375 12.3125 23.9313 11.2413V11.2413ZM7.74 27.4288C7.54323 27.5516 7.31616 27.6172 7.0842 27.6184C6.85224 27.6195 6.62454 27.556 6.42658 27.4351C6.22862 27.3142 6.06821 27.1406 5.96329 26.9338C5.85837 26.7269 5.81309 26.4949 5.8325 26.2637L6.0675 23.44C6.09698 23.0866 6.05093 22.7309 5.93239 22.3966C5.81386 22.0624 5.62556 21.7572 5.38 21.5013C5.24889 21.3666 5.12216 21.2278 5 21.085C3.5075 19.3088 2.625 17.1188 2.625 14.75C2.625 8.8125 8.165 4 15 4C21.835 4 27.375 8.8125 27.375 14.75C27.375 20.6875 21.835 25.5 15 25.5C14.3625 25.5 13.7375 25.4587 13.1263 25.3775C12.8888 25.3454 12.6516 25.3104 12.415 25.2725C11.8294 25.1801 11.2299 25.2988 10.7238 25.6075L7.74 27.4275V27.4288Z" fill="#A31C1C"/>
</svg>
