<svg viewBox="0 0 30 30" xmlns="http://www.w3.org/2000/svg"><g transform="matrix(1.25,0,0,1.25,0,0)"><path d="M0.75 21.75L23.25 21.75" fill="none" stroke="#ffffff" stroke-linecap="round" stroke-linejoin="round" stroke-width="1.5"></path><path d="M6,11.25H3a.75.75,0,0,0-.75.75v9.75h4.5V12A.75.75,0,0,0,6,11.25Z" fill="none" stroke="#ffffff" stroke-linecap="round" stroke-linejoin="round" stroke-width="1.5"></path><path d="M13.5,2.25h-3A.75.75,0,0,0,9.75,3V21.75h4.5V3A.75.75,0,0,0,13.5,2.25Z" fill="none" stroke="#ffffff" stroke-linecap="round" stroke-linejoin="round" stroke-width="1.5"></path><path d="M21,6.75H18a.75.75,0,0,0-.75.75V21.75h4.5V7.5A.75.75,0,0,0,21,6.75Z" fill="none" stroke="#ffffff" stroke-linecap="round" stroke-linejoin="round" stroke-width="1.5"></path></g></svg>