<svg viewBox="0 0 30 30" xmlns="http://www.w3.org/2000/svg"><g transform="matrix(1.25,0,0,1.25,0,0)"><path d="M8.492 11.265L7.432 15.508 11.674 14.447 18.038 8.083 14.856 4.901 8.492 11.265z" fill="none" stroke="#ffffff" stroke-linecap="round" stroke-linejoin="round" stroke-width="1.5"></path><path d="M21.751,4.371l1.06,1.06a1.5,1.5,0,0,1,0,2.122L19.5,10.863" fill="none" stroke="#ffffff" stroke-linecap="round" stroke-linejoin="round" stroke-width="1.5"></path><path d="M18.038,8.083l3.713-3.712a1.5,1.5,0,0,0,0-2.121L20.69,1.189a1.5,1.5,0,0,0-2.121,0L14.856,4.9" fill="none" stroke="#ffffff" stroke-linecap="round" stroke-linejoin="round" stroke-width="1.5"></path><path d="M18.75,14.25v7.5a1.5,1.5,0,0,1-1.5,1.5h-15a1.5,1.5,0,0,1-1.5-1.5v-15a1.5,1.5,0,0,1,1.5-1.5h7.5" fill="none" stroke="#ffffff" stroke-linecap="round" stroke-linejoin="round" stroke-width="1.5"></path></g></svg>