<svg xmlns="http://www.w3.org/2000/svg" fill="none" viewBox="0 0 30 30">
  
  
  
  
  
<g transform="matrix(1.25,0,0,1.25,0,0)"><path stroke="#ffffff" stroke-linecap="round" stroke-linejoin="round" stroke-width="1.5" d="M16.7495 6.25894V5.121C16.7495 4.72345 16.5916 4.3422 16.3105 4.061L13.4385 1.189C13.1573 0.907982 12.7761 0.750085 12.3785 0.75H4.24953C3.85171 0.75 3.47018 0.908035 3.18887 1.18934C2.90757 1.47064 2.74953 1.85218 2.74953 2.25V16.25C2.74953 16.6478 2.90757 17.0294 3.18887 17.3107C3.47018 17.592 3.85171 17.75 4.24953 17.75H7.24579"></path><path stroke="#ffffff" stroke-linecap="round" stroke-linejoin="round" stroke-width="1.5" d="M21.25 21.75C21.25 22.1478 21.092 22.5294 20.8107 22.8107C20.5294 23.092 20.1478 23.25 19.75 23.25H8.75C8.35218 23.25 7.97064 23.092 7.68934 22.8107C7.40804 22.5294 7.25 22.1478 7.25 21.75V7.75C7.25 7.35218 7.40804 6.97064 7.68934 6.68934C7.97064 6.40804 8.35218 6.25 8.75 6.25H16.879C17.2765 6.25008 17.6578 6.40798 17.939 6.689L20.811 9.561C21.092 9.8422 21.2499 10.2235 21.25 10.621V21.75Z"></path><path stroke="#ffffff" stroke-linecap="round" stroke-width="1.5" d="M11.0002 11H15.0002"></path><path stroke="#ffffff" stroke-linecap="round" stroke-width="1.5" d="M11.0002 15H17.5002"></path><path stroke="#ffffff" stroke-linecap="round" stroke-width="1.5" d="M11.0002 19H17.5002"></path></g></svg>